<?xml version='1.0' encoding='utf-8'?>
<mlt title="Anonymous Submission" version="0.9.2" root="/home/pelya" LC_NUMERIC="en_US.UTF-8">
 <profile width="1280" display_aspect_den="9" colorspace="709" frame_rate_den="1" description="HD 720p 25 fps" height="720" display_aspect_num="16" frame_rate_num="25" progressive="1" sample_aspect_num="1" sample_aspect_den="1"/>
 <producer in="0" out="500" id="black">
  <property name="mlt_type">producer</property>
  <property name="length">15000</property>
  <property name="eof">pause</property>
  <property name="resource">black</property>
  <property name="aspect_ratio">0</property>
  <property name="mlt_service">colour</property>
 </producer>
 <playlist id="black_track">
  <entry in="0" out="3548" producer="black"/>
 </playlist>
 <producer in="0" out="42" id="20_4">
  <property name="mlt_type">producer</property>
  <property name="length">43</property>
  <property name="eof">pause</property>
  <property name="resource">kino/kdenlive/talk/02-Select-road-builder-tool-.wav.wav</property>
  <property name="meta.media.nb_streams">1</property>
  <property name="meta.media.0.stream.type">audio</property>
  <property name="meta.media.0.codec.sample_fmt">s16</property>
  <property name="meta.media.0.codec.sample_rate">22050</property>
  <property name="meta.media.0.codec.channels">1</property>
  <property name="meta.media.0.codec.name">pcm_s16le</property>
  <property name="meta.media.0.codec.long_name">PCM signed 16-bit little-endian</property>
  <property name="meta.media.0.codec.bit_rate">352800</property>
  <property name="seekable">1</property>
  <property name="audio_index">0</property>
  <property name="video_index">-1</property>
  <property name="mlt_service">avformat</property>
 </producer>
 <producer in="0" out="21" id="21_4">
  <property name="mlt_type">producer</property>
  <property name="length">22</property>
  <property name="eof">pause</property>
  <property name="resource">kino/kdenlive/talk/03-Draw-a-line-.wav.wav</property>
  <property name="meta.media.nb_streams">1</property>
  <property name="meta.media.0.stream.type">audio</property>
  <property name="meta.media.0.codec.sample_fmt">s16</property>
  <property name="meta.media.0.codec.sample_rate">22050</property>
  <property name="meta.media.0.codec.channels">1</property>
  <property name="meta.media.0.codec.name">pcm_s16le</property>
  <property name="meta.media.0.codec.long_name">PCM signed 16-bit little-endian</property>
  <property name="meta.media.0.codec.bit_rate">352800</property>
  <property name="seekable">1</property>
  <property name="audio_index">0</property>
  <property name="video_index">-1</property>
  <property name="mlt_service">avformat</property>
 </producer>
 <producer in="0" out="14" id="18_4">
  <property name="mlt_type">producer</property>
  <property name="length">15</property>
  <property name="eof">pause</property>
  <property name="resource">kino/kdenlive/talk/04-Missed-it-.wav.wav</property>
  <property name="meta.media.nb_streams">1</property>
  <property name="meta.media.0.stream.type">audio</property>
  <property name="meta.media.0.codec.sample_fmt">s16</property>
  <property name="meta.media.0.codec.sample_rate">22050</property>
  <property name="meta.media.0.codec.channels">1</property>
  <property name="meta.media.0.codec.name">pcm_s16le</property>
  <property name="meta.media.0.codec.long_name">PCM signed 16-bit little-endian</property>
  <property name="meta.media.0.codec.bit_rate">352800</property>
  <property name="seekable">1</property>
  <property name="audio_index">0</property>
  <property name="video_index">-1</property>
  <property name="mlt_service">avformat</property>
 </producer>
 <producer in="0" out="56" id="23_4">
  <property name="mlt_type">producer</property>
  <property name="length">57</property>
  <property name="eof">pause</property>
  <property name="resource">kino/kdenlive/talk/06-Zoom---in---for-better-control-.wav.wav</property>
  <property name="meta.media.nb_streams">1</property>
  <property name="meta.media.0.stream.type">audio</property>
  <property name="meta.media.0.codec.sample_fmt">s16</property>
  <property name="meta.media.0.codec.sample_rate">22050</property>
  <property name="meta.media.0.codec.channels">1</property>
  <property name="meta.media.0.codec.name">pcm_s16le</property>
  <property name="meta.media.0.codec.long_name">PCM signed 16-bit little-endian</property>
  <property name="meta.media.0.codec.bit_rate">352800</property>
  <property name="seekable">1</property>
  <property name="audio_index">0</property>
  <property name="video_index">-1</property>
  <property name="mlt_service">avformat</property>
 </producer>
 <producer in="0" out="38" id="27_4">
  <property name="mlt_type">producer</property>
  <property name="length">39</property>
  <property name="eof">pause</property>
  <property name="resource">kino/kdenlive/talk/10-Select-orientation-.wav.wav</property>
  <property name="meta.media.nb_streams">1</property>
  <property name="meta.media.0.stream.type">audio</property>
  <property name="meta.media.0.codec.sample_fmt">s16</property>
  <property name="meta.media.0.codec.sample_rate">22050</property>
  <property name="meta.media.0.codec.channels">1</property>
  <property name="meta.media.0.codec.name">pcm_s16le</property>
  <property name="meta.media.0.codec.long_name">PCM signed 16-bit little-endian</property>
  <property name="meta.media.0.codec.bit_rate">352800</property>
  <property name="seekable">1</property>
  <property name="audio_index">0</property>
  <property name="video_index">-1</property>
  <property name="mlt_service">avformat</property>
 </producer>
 <producer in="0" out="40" id="29_4">
  <property name="mlt_type">producer</property>
  <property name="length">41</property>
  <property name="eof">pause</property>
  <property name="resource">kino/kdenlive/talk/12-Turn-on-area-coverage-.wav.wav</property>
  <property name="meta.media.nb_streams">1</property>
  <property name="meta.media.0.stream.type">audio</property>
  <property name="meta.media.0.codec.sample_fmt">s16</property>
  <property name="meta.media.0.codec.sample_rate">22050</property>
  <property name="meta.media.0.codec.channels">1</property>
  <property name="meta.media.0.codec.name">pcm_s16le</property>
  <property name="meta.media.0.codec.long_name">PCM signed 16-bit little-endian</property>
  <property name="meta.media.0.codec.bit_rate">352800</property>
  <property name="seekable">1</property>
  <property name="audio_index">0</property>
  <property name="video_index">-1</property>
  <property name="mlt_service">avformat</property>
 </producer>
 <producer in="0" out="34" id="31_4">
  <property name="mlt_type">producer</property>
  <property name="length">35</property>
  <property name="eof">pause</property>
  <property name="resource">kino/kdenlive/talk/14-Build-a-vehicle-depot-.wav.wav</property>
  <property name="meta.media.nb_streams">1</property>
  <property name="meta.media.0.stream.type">audio</property>
  <property name="meta.media.0.codec.sample_fmt">s16</property>
  <property name="meta.media.0.codec.sample_rate">22050</property>
  <property name="meta.media.0.codec.channels">1</property>
  <property name="meta.media.0.codec.name">pcm_s16le</property>
  <property name="meta.media.0.codec.long_name">PCM signed 16-bit little-endian</property>
  <property name="meta.media.0.codec.bit_rate">352800</property>
  <property name="seekable">1</property>
  <property name="audio_index">0</property>
  <property name="video_index">-1</property>
  <property name="mlt_service">avformat</property>
 </producer>
 <producer in="0" out="18" id="32_4">
  <property name="mlt_type">producer</property>
  <property name="length">19</property>
  <property name="eof">pause</property>
  <property name="resource">kino/kdenlive/talk/15-Buy-a-bus-.wav.wav</property>
  <property name="meta.media.nb_streams">1</property>
  <property name="meta.media.0.stream.type">audio</property>
  <property name="meta.media.0.codec.sample_fmt">s16</property>
  <property name="meta.media.0.codec.sample_rate">22050</property>
  <property name="meta.media.0.codec.channels">1</property>
  <property name="meta.media.0.codec.name">pcm_s16le</property>
  <property name="meta.media.0.codec.long_name">PCM signed 16-bit little-endian</property>
  <property name="meta.media.0.codec.bit_rate">352800</property>
  <property name="seekable">1</property>
  <property name="audio_index">0</property>
  <property name="video_index">-1</property>
  <property name="mlt_service">avformat</property>
 </producer>
 <producer in="0" out="35" id="33_4">
  <property name="mlt_type">producer</property>
  <property name="length">36</property>
  <property name="eof">pause</property>
  <property name="resource">kino/kdenlive/talk/16-Open-vehicle-orders-.wav.wav</property>
  <property name="meta.media.nb_streams">1</property>
  <property name="meta.media.0.stream.type">audio</property>
  <property name="meta.media.0.codec.sample_fmt">s16</property>
  <property name="meta.media.0.codec.sample_rate">22050</property>
  <property name="meta.media.0.codec.channels">1</property>
  <property name="meta.media.0.codec.name">pcm_s16le</property>
  <property name="meta.media.0.codec.long_name">PCM signed 16-bit little-endian</property>
  <property name="meta.media.0.codec.bit_rate">352800</property>
  <property name="seekable">1</property>
  <property name="audio_index">0</property>
  <property name="video_index">-1</property>
  <property name="mlt_service">avformat</property>
 </producer>
 <producer in="0" out="25" id="34_4">
  <property name="mlt_type">producer</property>
  <property name="length">26</property>
  <property name="eof">pause</property>
  <property name="resource">kino/kdenlive/talk/17-Add-a-station-.wav.wav</property>
  <property name="meta.media.nb_streams">1</property>
  <property name="meta.media.0.stream.type">audio</property>
  <property name="meta.media.0.codec.sample_fmt">s16</property>
  <property name="meta.media.0.codec.sample_rate">22050</property>
  <property name="meta.media.0.codec.channels">1</property>
  <property name="meta.media.0.codec.name">pcm_s16le</property>
  <property name="meta.media.0.codec.long_name">PCM signed 16-bit little-endian</property>
  <property name="meta.media.0.codec.bit_rate">352800</property>
  <property name="seekable">1</property>
  <property name="audio_index">0</property>
  <property name="video_index">-1</property>
  <property name="mlt_service">avformat</property>
 </producer>
 <producer in="0" out="40" id="35_4">
  <property name="mlt_type">producer</property>
  <property name="length">41</property>
  <property name="eof">pause</property>
  <property name="resource">kino/kdenlive/talk/18-Select-another-station-.wav.wav</property>
  <property name="meta.media.nb_streams">1</property>
  <property name="meta.media.0.stream.type">audio</property>
  <property name="meta.media.0.codec.sample_fmt">s16</property>
  <property name="meta.media.0.codec.sample_rate">22050</property>
  <property name="meta.media.0.codec.channels">1</property>
  <property name="meta.media.0.codec.name">pcm_s16le</property>
  <property name="meta.media.0.codec.long_name">PCM signed 16-bit little-endian</property>
  <property name="meta.media.0.codec.bit_rate">352800</property>
  <property name="seekable">1</property>
  <property name="audio_index">0</property>
  <property name="video_index">-1</property>
  <property name="mlt_service">avformat</property>
 </producer>
 <producer in="0" out="25" id="36_4">
  <property name="mlt_type">producer</property>
  <property name="length">26</property>
  <property name="eof">pause</property>
  <property name="resource">kino/kdenlive/talk/19-Start-vehicle-.wav.wav</property>
  <property name="meta.media.nb_streams">1</property>
  <property name="meta.media.0.stream.type">audio</property>
  <property name="meta.media.0.codec.sample_fmt">s16</property>
  <property name="meta.media.0.codec.sample_rate">22050</property>
  <property name="meta.media.0.codec.channels">1</property>
  <property name="meta.media.0.codec.name">pcm_s16le</property>
  <property name="meta.media.0.codec.long_name">PCM signed 16-bit little-endian</property>
  <property name="meta.media.0.codec.bit_rate">352800</property>
  <property name="seekable">1</property>
  <property name="audio_index">0</property>
  <property name="video_index">-1</property>
  <property name="mlt_service">avformat</property>
 </producer>
 <producer in="0" out="24" id="37_4">
  <property name="mlt_type">producer</property>
  <property name="length">25</property>
  <property name="eof">pause</property>
  <property name="resource">kino/kdenlive/talk/20-Go-to-depot-.wav.wav</property>
  <property name="meta.media.nb_streams">1</property>
  <property name="meta.media.0.stream.type">audio</property>
  <property name="meta.media.0.codec.sample_fmt">s16</property>
  <property name="meta.media.0.codec.sample_rate">22050</property>
  <property name="meta.media.0.codec.channels">1</property>
  <property name="meta.media.0.codec.name">pcm_s16le</property>
  <property name="meta.media.0.codec.long_name">PCM signed 16-bit little-endian</property>
  <property name="meta.media.0.codec.bit_rate">352800</property>
  <property name="seekable">1</property>
  <property name="audio_index">0</property>
  <property name="video_index">-1</property>
  <property name="mlt_service">avformat</property>
 </producer>
 <producer in="0" out="24" id="38_4">
  <property name="mlt_type">producer</property>
  <property name="length">25</property>
  <property name="eof">pause</property>
  <property name="resource">kino/kdenlive/talk/21-Clone-the-bus-.wav.wav</property>
  <property name="meta.media.nb_streams">1</property>
  <property name="meta.media.0.stream.type">audio</property>
  <property name="meta.media.0.codec.sample_fmt">s16</property>
  <property name="meta.media.0.codec.sample_rate">22050</property>
  <property name="meta.media.0.codec.channels">1</property>
  <property name="meta.media.0.codec.name">pcm_s16le</property>
  <property name="meta.media.0.codec.long_name">PCM signed 16-bit little-endian</property>
  <property name="meta.media.0.codec.bit_rate">352800</property>
  <property name="seekable">1</property>
  <property name="audio_index">0</property>
  <property name="video_index">-1</property>
  <property name="mlt_service">avformat</property>
 </producer>
 <producer in="0" out="22" id="39_4">
  <property name="mlt_type">producer</property>
  <property name="length">23</property>
  <property name="eof">pause</property>
  <property name="resource">kino/kdenlive/talk/22-Clone-again-.wav.wav</property>
  <property name="meta.media.nb_streams">1</property>
  <property name="meta.media.0.stream.type">audio</property>
  <property name="meta.media.0.codec.sample_fmt">s16</property>
  <property name="meta.media.0.codec.sample_rate">22050</property>
  <property name="meta.media.0.codec.channels">1</property>
  <property name="meta.media.0.codec.name">pcm_s16le</property>
  <property name="meta.media.0.codec.long_name">PCM signed 16-bit little-endian</property>
  <property name="meta.media.0.codec.bit_rate">352800</property>
  <property name="seekable">1</property>
  <property name="audio_index">0</property>
  <property name="video_index">-1</property>
  <property name="mlt_service">avformat</property>
 </producer>
 <producer in="0" out="34" id="40_4">
  <property name="mlt_type">producer</property>
  <property name="length">35</property>
  <property name="eof">pause</property>
  <property name="resource">kino/kdenlive/talk/23-Start-all-vehicles-.wav.wav</property>
  <property name="meta.media.nb_streams">1</property>
  <property name="meta.media.0.stream.type">audio</property>
  <property name="meta.media.0.codec.sample_fmt">s16</property>
  <property name="meta.media.0.codec.sample_rate">22050</property>
  <property name="meta.media.0.codec.channels">1</property>
  <property name="meta.media.0.codec.name">pcm_s16le</property>
  <property name="meta.media.0.codec.long_name">PCM signed 16-bit little-endian</property>
  <property name="meta.media.0.codec.bit_rate">352800</property>
  <property name="seekable">1</property>
  <property name="audio_index">0</property>
  <property name="video_index">-1</property>
  <property name="mlt_service">avformat</property>
 </producer>
 <playlist id="playlist0">
  <blank length="98"/>
  <entry in="0" out="42" producer="20_4"/>
  <blank length="98"/>
  <entry in="0" out="21" producer="21_4"/>
  <blank length="69"/>
  <entry in="0" out="14" producer="18_4"/>
  <blank length="164"/>
  <entry in="0" out="56" producer="23_4"/>
  <blank length="518"/>
  <entry in="0" out="38" producer="27_4"/>
  <blank length="238"/>
  <entry in="0" out="40" producer="29_4"/>
  <blank length="153"/>
  <entry in="0" out="34" producer="31_4"/>
  <blank length="236"/>
  <entry in="0" out="18" producer="32_4"/>
  <blank length="173"/>
  <entry in="0" out="35" producer="33_4"/>
  <blank length="71"/>
  <entry in="0" out="25" producer="34_4"/>
  <blank length="183"/>
  <entry in="0" out="40" producer="35_4"/>
  <blank length="206"/>
  <entry in="0" out="25" producer="36_4"/>
  <blank length="76"/>
  <entry in="0" out="24" producer="37_4"/>
  <blank length="103"/>
  <entry in="0" out="24" producer="38_4"/>
  <blank length="230"/>
  <entry in="0" out="22" producer="39_4"/>
  <blank length="221"/>
  <entry in="0" out="34" producer="40_4"/>
 </playlist>
 <producer in="0" out="22" id="19_3">
  <property name="mlt_type">producer</property>
  <property name="length">23</property>
  <property name="eof">pause</property>
  <property name="resource">kino/kdenlive/talk/01-Bus-service-.wav.wav</property>
  <property name="meta.media.nb_streams">1</property>
  <property name="meta.media.0.stream.type">audio</property>
  <property name="meta.media.0.codec.sample_fmt">s16</property>
  <property name="meta.media.0.codec.sample_rate">22050</property>
  <property name="meta.media.0.codec.channels">1</property>
  <property name="meta.media.0.codec.name">pcm_s16le</property>
  <property name="meta.media.0.codec.long_name">PCM signed 16-bit little-endian</property>
  <property name="meta.media.0.codec.bit_rate">352800</property>
  <property name="seekable">1</property>
  <property name="audio_index">0</property>
  <property name="video_index">-1</property>
  <property name="mlt_service">avformat</property>
 </producer>
 <producer in="0" out="67" id="22_3">
  <property name="mlt_type">producer</property>
  <property name="length">68</property>
  <property name="eof">pause</property>
  <property name="resource">kino/kdenlive/talk/05-Touch-the-screen-with-two-fingers-to-cancel-.wav.wav</property>
  <property name="meta.media.nb_streams">1</property>
  <property name="meta.media.0.stream.type">audio</property>
  <property name="meta.media.0.codec.sample_fmt">s16</property>
  <property name="meta.media.0.codec.sample_rate">22050</property>
  <property name="meta.media.0.codec.channels">1</property>
  <property name="meta.media.0.codec.name">pcm_s16le</property>
  <property name="meta.media.0.codec.long_name">PCM signed 16-bit little-endian</property>
  <property name="meta.media.0.codec.bit_rate">352800</property>
  <property name="seekable">1</property>
  <property name="audio_index">0</property>
  <property name="video_index">-1</property>
  <property name="mlt_service">avformat</property>
 </producer>
 <producer in="0" out="67" id="24_3">
  <property name="mlt_type">producer</property>
  <property name="length">68</property>
  <property name="eof">pause</property>
  <property name="resource">kino/kdenlive/talk/07-Drag-the-map-with-two-fingers-while-building-.wav.wav</property>
  <property name="meta.media.nb_streams">1</property>
  <property name="meta.media.0.stream.type">audio</property>
  <property name="meta.media.0.codec.sample_fmt">s16</property>
  <property name="meta.media.0.codec.sample_rate">22050</property>
  <property name="meta.media.0.codec.channels">1</property>
  <property name="meta.media.0.codec.name">pcm_s16le</property>
  <property name="meta.media.0.codec.long_name">PCM signed 16-bit little-endian</property>
  <property name="meta.media.0.codec.bit_rate">352800</property>
  <property name="seekable">1</property>
  <property name="audio_index">0</property>
  <property name="video_index">-1</property>
  <property name="mlt_service">avformat</property>
 </producer>
 <producer in="0" out="36" id="25_3">
  <property name="mlt_type">producer</property>
  <property name="length">37</property>
  <property name="eof">pause</property>
  <property name="resource">kino/kdenlive/talk/08-It-will-also-scroll-.wav.wav</property>
  <property name="meta.media.nb_streams">1</property>
  <property name="meta.media.0.stream.type">audio</property>
  <property name="meta.media.0.codec.sample_fmt">s16</property>
  <property name="meta.media.0.codec.sample_rate">22050</property>
  <property name="meta.media.0.codec.channels">1</property>
  <property name="meta.media.0.codec.name">pcm_s16le</property>
  <property name="meta.media.0.codec.long_name">PCM signed 16-bit little-endian</property>
  <property name="meta.media.0.codec.bit_rate">352800</property>
  <property name="seekable">1</property>
  <property name="audio_index">0</property>
  <property name="video_index">-1</property>
  <property name="mlt_service">avformat</property>
 </producer>
 <producer in="0" out="49" id="26_3">
  <property name="mlt_type">producer</property>
  <property name="length">50</property>
  <property name="eof">pause</property>
  <property name="resource">kino/kdenlive/talk/09-Select-a-bus-station-to-build-.wav.wav</property>
  <property name="meta.media.nb_streams">1</property>
  <property name="meta.media.0.stream.type">audio</property>
  <property name="meta.media.0.codec.sample_fmt">s16</property>
  <property name="meta.media.0.codec.sample_rate">22050</property>
  <property name="meta.media.0.codec.channels">1</property>
  <property name="meta.media.0.codec.name">pcm_s16le</property>
  <property name="meta.media.0.codec.long_name">PCM signed 16-bit little-endian</property>
  <property name="meta.media.0.codec.bit_rate">352800</property>
  <property name="seekable">1</property>
  <property name="audio_index">0</property>
  <property name="video_index">-1</property>
  <property name="mlt_service">avformat</property>
 </producer>
 <producer in="0" out="61" id="28_3">
  <property name="mlt_type">producer</property>
  <property name="length">62</property>
  <property name="eof">pause</property>
  <property name="resource">kino/kdenlive/talk/11-Build-another-station-in-the-second-town-.wav.wav</property>
  <property name="meta.media.nb_streams">1</property>
  <property name="meta.media.0.stream.type">audio</property>
  <property name="meta.media.0.codec.sample_fmt">s16</property>
  <property name="meta.media.0.codec.sample_rate">22050</property>
  <property name="meta.media.0.codec.channels">1</property>
  <property name="meta.media.0.codec.name">pcm_s16le</property>
  <property name="meta.media.0.codec.long_name">PCM signed 16-bit little-endian</property>
  <property name="meta.media.0.codec.bit_rate">352800</property>
  <property name="seekable">1</property>
  <property name="audio_index">0</property>
  <property name="video_index">-1</property>
  <property name="mlt_service">avformat</property>
 </producer>
 <producer in="0" out="53" id="30_3">
  <property name="mlt_type">producer</property>
  <property name="length">54</property>
  <property name="eof">pause</property>
  <property name="resource">kino/kdenlive/talk/13-You-want-to-cover-many-buildings-.wav.wav</property>
  <property name="meta.media.nb_streams">1</property>
  <property name="meta.media.0.stream.type">audio</property>
  <property name="meta.media.0.codec.sample_fmt">s16</property>
  <property name="meta.media.0.codec.sample_rate">22050</property>
  <property name="meta.media.0.codec.channels">1</property>
  <property name="meta.media.0.codec.name">pcm_s16le</property>
  <property name="meta.media.0.codec.long_name">PCM signed 16-bit little-endian</property>
  <property name="meta.media.0.codec.bit_rate">352800</property>
  <property name="seekable">1</property>
  <property name="audio_index">0</property>
  <property name="video_index">-1</property>
  <property name="mlt_service">avformat</property>
 </producer>
 <playlist id="playlist1">
  <blank length="38"/>
  <entry in="0" out="22" producer="19_3"/>
  <blank length="293"/>
  <entry in="0" out="67" producer="22_3"/>
  <blank length="297"/>
  <entry in="0" out="67" producer="24_3"/>
  <blank length="97"/>
  <entry in="0" out="36" producer="25_3"/>
  <blank length="86"/>
  <entry in="0" out="49" producer="26_3"/>
  <blank length="216"/>
  <entry in="0" out="61" producer="28_3"/>
  <blank length="95"/>
  <entry in="0" out="53" producer="30_3"/>
 </playlist>
 <producer in="0" out="556" id="2">
  <property name="mlt_type">producer</property>
  <property name="length">557</property>
  <property name="eof">pause</property>
  <property name="resource">kino/kdenlive/openttd-buses-intro-frame.png</property>
  <property name="ttl">25</property>
  <property name="aspect_ratio">1</property>
  <property name="progressive">1</property>
  <property name="seekable">1</property>
  <property name="loop">1</property>
  <property name="meta.media.width">1280</property>
  <property name="meta.media.height">720</property>
  <property name="mlt_service">pixbuf</property>
 </producer>
 <producer in="0" out="13519" id="1">
  <property name="mlt_type">producer</property>
  <property name="length">13520</property>
  <property name="eof">pause</property>
  <property name="resource">kino/kdenlive/openttd-buses-raw.mp4</property>
  <property name="meta.media.nb_streams">1</property>
  <property name="meta.media.0.stream.type">video</property>
  <property name="meta.media.0.stream.frame_rate">42.5833</property>
  <property name="meta.media.0.stream.sample_aspect_ratio">1</property>
  <property name="meta.media.0.codec.width">1280</property>
  <property name="meta.media.0.codec.height">720</property>
  <property name="meta.media.0.codec.frame_rate">inf</property>
  <property name="meta.media.0.codec.pix_fmt">yuv420p</property>
  <property name="meta.media.0.codec.sample_aspect_ratio">0</property>
  <property name="meta.media.0.codec.colorspace">709</property>
  <property name="meta.media.0.codec.name">h264</property>
  <property name="meta.media.0.codec.long_name">H.264 / AVC / MPEG-4 AVC / MPEG-4 part 10</property>
  <property name="meta.media.0.codec.bit_rate">8578389</property>
  <property name="meta.attr.0.stream.creation_time.markup">2015-01-09 19:17:50</property>
  <property name="meta.attr.0.stream.language.markup">eng</property>
  <property name="meta.attr.major_brand.markup">mp42</property>
  <property name="meta.attr.minor_version.markup">0</property>
  <property name="meta.attr.compatible_brands.markup">isommp42</property>
  <property name="meta.attr.creation_time.markup">2015-01-09 19:17:50</property>
  <property name="seekable">1</property>
  <property name="meta.media.sample_aspect_num">65536</property>
  <property name="meta.media.sample_aspect_den">65536</property>
  <property name="aspect_ratio">1</property>
  <property name="audio_index">-1</property>
  <property name="video_index">0</property>
  <property name="mlt_service">avformat</property>
  <property name="meta.media.frame_rate_num">511</property>
  <property name="meta.media.frame_rate_den">12</property>
  <property name="meta.media.colorspace">709</property>
  <property name="meta.media.width">1280</property>
  <property name="meta.media.height">720</property>
  <property name="meta.media.top_field_first">0</property>
  <property name="meta.media.progressive">1</property>
 </producer>
 <producer in="0" out="138" id="8">
  <property name="mlt_type">producer</property>
  <property name="length">139</property>
  <property name="eof">pause</property>
  <property name="resource">kino/kdenlive/zoom-in.png</property>
  <property name="ttl">25</property>
  <property name="aspect_ratio">1</property>
  <property name="progressive">1</property>
  <property name="seekable">1</property>
  <property name="loop">1</property>
  <property name="meta.media.width">1280</property>
  <property name="meta.media.height">720</property>
  <property name="mlt_service">pixbuf</property>
 </producer>
 <producer in="0" out="124" id="14">
  <property name="mlt_type">producer</property>
  <property name="length">125</property>
  <property name="eof">pause</property>
  <property name="resource">kino/kdenlive/go-to-station.png</property>
  <property name="ttl">25</property>
  <property name="aspect_ratio">1</property>
  <property name="progressive">1</property>
  <property name="seekable">1</property>
  <property name="loop">1</property>
  <property name="meta.media.width">1280</property>
  <property name="meta.media.height">720</property>
  <property name="mlt_service">pixbuf</property>
 </producer>
 <producer in="0" out="54079" id="slowmotion:1:0.25">
  <property name="mlt_type">producer</property>
  <property name="length">54080</property>
  <property name="eof">pause</property>
  <property name="resource">kino/kdenlive/openttd-buses-raw.mp4?0.25</property>
  <property name="aspect_ratio">1</property>
  <property name="mlt_service">framebuffer</property>
  <property name="strobe">1</property>
 </producer>
 <playlist id="playlist3">
  <entry in="0" out="90" producer="2">
   <filter out="42" id="fade_from_black">
    <property name="track">0</property>
    <property name="start">0</property>
    <property name="mlt_type">filter</property>
    <property name="mlt_service">brightness</property>
    <property name="kdenlive_id">fade_from_black</property>
    <property name="tag">brightness</property>
    <property name="kdenlive_ix">1</property>
    <property name="end">1</property>
    <property name="kdenlive_info"/>
   </filter>
  </entry>
  <blank length="156"/>
  <entry in="5041" out="5078" producer="1"/>
  <blank length="157"/>
  <entry in="0" out="138" producer="8"/>
  <blank length="777"/>
  <entry in="6786" out="6857" producer="1"/>
  <blank length="120"/>
  <entry in="8037" out="8140" producer="1"/>
  <blank length="222"/>
  <entry in="9169" out="9194" producer="1"/>
  <entry in="9249" out="9288" producer="1"/>
  <blank length="249"/>
  <entry in="10045" out="10124" producer="1"/>
  <entry in="0" out="26" producer="14"/>
  <blank length="33"/>
  <entry in="10205" out="10338" producer="1"/>
  <blank length="33"/>
  <entry in="10385" out="10421" producer="1"/>
  <blank length="148"/>
  <entry in="10986" out="11020" producer="1"/>
  <blank length="49"/>
  <entry in="11202" out="11234" producer="1"/>
  <blank length="39"/>
  <entry in="11466" out="11527" producer="1"/>
  <entry in="46112" out="46147" producer="slowmotion:1:0.25"/>
  <blank length="96"/>
  <entry in="11639" out="11724" producer="1"/>
  <blank length="31"/>
  <entry in="11762" out="11807" producer="1"/>
  <blank length="52"/>
  <entry in="11866" out="11902" producer="1"/>
 </playlist>
 <producer in="0" out="124" id="6">
  <property name="mlt_type">producer</property>
  <property name="length">125</property>
  <property name="eof">pause</property>
  <property name="resource">kino/kdenlive/missed-it.png</property>
  <property name="ttl">25</property>
  <property name="aspect_ratio">1</property>
  <property name="progressive">1</property>
  <property name="seekable">1</property>
  <property name="loop">1</property>
  <property name="meta.media.width">1280</property>
  <property name="meta.media.height">720</property>
  <property name="mlt_service">pixbuf</property>
 </producer>
 <producer in="0" out="124" id="3">
  <property name="mlt_type">producer</property>
  <property name="length">125</property>
  <property name="eof">pause</property>
  <property name="resource">kino/kdenlive/black.png</property>
  <property name="ttl">25</property>
  <property name="aspect_ratio">1</property>
  <property name="progressive">1</property>
  <property name="seekable">1</property>
  <property name="loop">1</property>
  <property name="meta.media.width">1280</property>
  <property name="meta.media.height">720</property>
  <property name="mlt_service">pixbuf</property>
 </producer>
 <producer in="0" out="124" id="10">
  <property name="mlt_type">producer</property>
  <property name="length">125</property>
  <property name="eof">pause</property>
  <property name="resource">kino/kdenlive/click-depot.png</property>
  <property name="ttl">25</property>
  <property name="aspect_ratio">1</property>
  <property name="progressive">1</property>
  <property name="seekable">1</property>
  <property name="loop">1</property>
  <property name="meta.media.width">1280</property>
  <property name="meta.media.height">720</property>
  <property name="mlt_service">pixbuf</property>
 </producer>
 <producer in="0" out="124" id="11">
  <property name="mlt_type">producer</property>
  <property name="length">125</property>
  <property name="eof">pause</property>
  <property name="resource">kino/kdenlive/click-depot-2.png</property>
  <property name="ttl">25</property>
  <property name="aspect_ratio">1</property>
  <property name="progressive">1</property>
  <property name="seekable">1</property>
  <property name="loop">1</property>
  <property name="meta.media.width">1280</property>
  <property name="meta.media.height">720</property>
  <property name="mlt_service">pixbuf</property>
 </producer>
 <producer in="0" out="124" id="12">
  <property name="mlt_type">producer</property>
  <property name="length">125</property>
  <property name="eof">pause</property>
  <property name="resource">kino/kdenlive/buy-vehicle.png</property>
  <property name="ttl">25</property>
  <property name="aspect_ratio">1</property>
  <property name="progressive">1</property>
  <property name="seekable">1</property>
  <property name="loop">1</property>
  <property name="meta.media.width">1280</property>
  <property name="meta.media.height">720</property>
  <property name="mlt_service">pixbuf</property>
 </producer>
 <producer in="0" out="124" id="13">
  <property name="mlt_type">producer</property>
  <property name="length">125</property>
  <property name="eof">pause</property>
  <property name="resource">kino/kdenlive/click-orders.png</property>
  <property name="ttl">25</property>
  <property name="aspect_ratio">1</property>
  <property name="progressive">1</property>
  <property name="seekable">1</property>
  <property name="loop">1</property>
  <property name="meta.media.width">1280</property>
  <property name="meta.media.height">720</property>
  <property name="mlt_service">pixbuf</property>
 </producer>
 <producer in="0" out="124" id="15">
  <property name="mlt_type">producer</property>
  <property name="length">125</property>
  <property name="eof">pause</property>
  <property name="resource">kino/kdenlive/go-to-station-2.png</property>
  <property name="ttl">25</property>
  <property name="aspect_ratio">1</property>
  <property name="progressive">1</property>
  <property name="seekable">1</property>
  <property name="loop">1</property>
  <property name="meta.media.width">1280</property>
  <property name="meta.media.height">720</property>
  <property name="mlt_service">pixbuf</property>
 </producer>
 <producer in="0" out="124" id="16">
  <property name="mlt_type">producer</property>
  <property name="length">125</property>
  <property name="eof">pause</property>
  <property name="resource">kino/kdenlive/start-vehicle.png</property>
  <property name="ttl">25</property>
  <property name="aspect_ratio">1</property>
  <property name="progressive">1</property>
  <property name="seekable">1</property>
  <property name="loop">1</property>
  <property name="meta.media.width">1280</property>
  <property name="meta.media.height">720</property>
  <property name="mlt_service">pixbuf</property>
 </producer>
 <playlist id="playlist4">
  <blank length="85"/>
  <entry in="4822" out="4988" producer="1"/>
  <blank length="29"/>
  <entry in="5159" out="5231" producer="1"/>
  <entry in="5232" out="5255" producer="1"/>
  <entry in="0" out="43" producer="6"/>
  <entry in="5256" out="5278" producer="1"/>
  <blank length="80"/>
  <entry in="6" out="61" producer="3">
   <filter id="frei0r.alphaspot">
    <property name="track">0</property>
    <property name="version">0.1</property>
    <property name="mlt_type">filter</property>
    <property name="mlt_service">frei0r.alphaspot</property>
    <property name="kdenlive_id">frei0r.alphaspot</property>
    <property name="tag">frei0r.alphaspot</property>
    <property name="kdenlive_ix">1</property>
    <property name="kdenlive_info"/>
    <property name="Shape">0.38</property>
    <property name="Position X">6=0.074</property>
    <property name="Position Y">6=0.285</property>
    <property name="Size X">6=0.064</property>
    <property name="Size Y">6=0.096</property>
    <property name="Tilt">6=0.5</property>
    <property name="Transition width">6=0</property>
    <property name="Min">6=0.596</property>
    <property name="Max">6=0</property>
    <property name="Operation">0.0</property>
   </filter>
  </entry>
  <entry in="5488" out="5937" producer="1"/>
  <entry in="6109" out="6218" producer="1"/>
  <entry in="6247" out="6263" producer="1"/>
  <entry in="6264" out="6307" producer="1"/>
  <entry in="6376" out="6534" producer="1"/>
  <entry in="6" out="61" producer="3">
   <filter id="filter0">
    <property name="track">0</property>
    <property name="version">0.1</property>
    <property name="mlt_type">filter</property>
    <property name="mlt_service">frei0r.alphaspot</property>
    <property name="kdenlive_id">frei0r.alphaspot</property>
    <property name="tag">frei0r.alphaspot</property>
    <property name="kdenlive_ix">1</property>
    <property name="kdenlive_info"/>
    <property name="Shape">0.38</property>
    <property name="Position X">6=0.822</property>
    <property name="Position Y">6=0.543</property>
    <property name="Size X">6=0.064</property>
    <property name="Size Y">6=0.096</property>
    <property name="Tilt">6=0.5</property>
    <property name="Transition width">6=0</property>
    <property name="Min">6=0.596</property>
    <property name="Max">6=0</property>
    <property name="Operation">0.0</property>
   </filter>
  </entry>
  <blank length="8"/>
  <entry in="7670" out="7799" producer="1"/>
  <entry in="6" out="61" producer="3">
   <filter id="filter1">
    <property name="track">0</property>
    <property name="version">0.1</property>
    <property name="mlt_type">filter</property>
    <property name="mlt_service">frei0r.alphaspot</property>
    <property name="kdenlive_id">frei0r.alphaspot</property>
    <property name="tag">frei0r.alphaspot</property>
    <property name="kdenlive_ix">1</property>
    <property name="kdenlive_info"/>
    <property name="Shape">0.38</property>
    <property name="Position X">6=0.628</property>
    <property name="Position Y">6=0.125</property>
    <property name="Size X">6=0.064</property>
    <property name="Size Y">6=0.096</property>
    <property name="Tilt">6=0.5</property>
    <property name="Transition width">6=0</property>
    <property name="Min">6=0.596</property>
    <property name="Max">6=0</property>
    <property name="Operation">0.0</property>
   </filter>
  </entry>
  <blank length="40"/>
  <entry in="8589" out="8614" producer="1"/>
  <entry in="8686" out="8708" producer="1"/>
  <entry in="8749" out="8797" producer="1"/>
  <blank length="23"/>
  <entry in="8957" out="8960" producer="1"/>
  <entry in="0" out="13" producer="10"/>
  <entry in="8961" out="8975" producer="1"/>
  <entry in="0" out="34" producer="11"/>
  <entry in="8976" out="9016" producer="1"/>
  <blank length="58"/>
  <entry in="9323" out="9325" producer="1"/>
  <entry in="0" out="24" producer="12"/>
  <entry in="9326" out="9372" producer="1"/>
  <entry in="0" out="24" producer="13"/>
  <entry in="9825" out="9933" producer="1"/>
  <entry in="9999" out="10044" producer="1"/>
  <blank length="99"/>
  <entry in="10125" out="10165" producer="1"/>
  <blank length="128"/>
  <entry in="10372" out="10384" producer="1"/>
  <entry in="0" out="26" producer="15"/>
  <blank length="30"/>
  <entry in="10676" out="10705" producer="1"/>
  <entry in="10802" out="10848" producer="1"/>
  <entry in="0" out="21" producer="16"/>
  <entry in="10849" out="10903" producer="1"/>
  <blank length="32"/>
  <entry in="11021" out="11072" producer="1"/>
  <blank length="27"/>
  <entry in="11347" out="11391" producer="1"/>
  <blank length="92"/>
  <entry in="11537" out="11638" producer="1"/>
  <blank length="80"/>
  <entry in="11725" out="11761" producer="1"/>
  <blank length="40"/>
  <entry in="11808" out="11865" producer="1"/>
  <blank length="31"/>
  <entry in="11903" out="11922" producer="1"/>
  <entry in="11989" out="12235" producer="1">
   <filter in="12192" out="12236" id="fade_to_black">
    <property name="track">0</property>
    <property name="start">1</property>
    <property name="mlt_type">filter</property>
    <property name="mlt_service">brightness</property>
    <property name="kdenlive_id">fade_to_black</property>
    <property name="tag">brightness</property>
    <property name="kdenlive_ix">1</property>
    <property name="end">0</property>
    <property name="kdenlive_info"/>
   </filter>
  </entry>
 </playlist>
 <producer in="0" out="36" id="25">
  <property name="mlt_type">producer</property>
  <property name="length">37</property>
  <property name="eof">pause</property>
  <property name="resource">kino/kdenlive/talk/08-It-will-also-scroll-.wav.wav</property>
  <property name="meta.media.nb_streams">1</property>
  <property name="meta.media.0.stream.type">audio</property>
  <property name="meta.media.0.codec.sample_fmt">s16</property>
  <property name="meta.media.0.codec.sample_rate">22050</property>
  <property name="meta.media.0.codec.channels">1</property>
  <property name="meta.media.0.codec.name">pcm_s16le</property>
  <property name="meta.media.0.codec.long_name">PCM signed 16-bit little-endian</property>
  <property name="meta.media.0.codec.bit_rate">352800</property>
  <property name="seekable">1</property>
  <property name="audio_index">0</property>
  <property name="video_index">-1</property>
  <property name="mlt_service">avformat</property>
 </producer>
 <producer in="0" out="124" id="7">
  <property name="mlt_type">producer</property>
  <property name="length">125</property>
  <property name="eof">pause</property>
  <property name="resource">kino/kdenlive/two_fingers_double_tap.png</property>
  <property name="ttl">25</property>
  <property name="aspect_ratio">1</property>
  <property name="progressive">1</property>
  <property name="seekable">1</property>
  <property name="loop">1</property>
  <property name="meta.media.width">720</property>
  <property name="meta.media.height">720</property>
  <property name="mlt_service">pixbuf</property>
 </producer>
 <producer in="0" out="124" id="9">
  <property name="mlt_type">producer</property>
  <property name="length">125</property>
  <property name="eof">pause</property>
  <property name="resource">kino/kdenlive/two_fingers_swipe_left.png</property>
  <property name="ttl">25</property>
  <property name="aspect_ratio">1</property>
  <property name="progressive">1</property>
  <property name="seekable">1</property>
  <property name="loop">1</property>
  <property name="meta.media.width">720</property>
  <property name="meta.media.height">720</property>
  <property name="mlt_service">pixbuf</property>
 </producer>
 <playlist id="playlist5">
  <blank length="24"/>
  <entry in="0" out="36" producer="25"/>
  <blank length="30"/>
  <entry in="6" out="61" producer="3">
   <filter id="filter2">
    <property name="track">0</property>
    <property name="version">0.1</property>
    <property name="mlt_type">filter</property>
    <property name="mlt_service">frei0r.alphaspot</property>
    <property name="kdenlive_id">frei0r.alphaspot</property>
    <property name="tag">frei0r.alphaspot</property>
    <property name="kdenlive_ix">1</property>
    <property name="Shape">0.38</property>
    <property name="Position X">6=0.931</property>
    <property name="Position Y">6=0.205</property>
    <property name="Size X">6=0.064</property>
    <property name="Size Y">6=0.096</property>
    <property name="Tilt">6=0.5</property>
    <property name="Transition width">6=0</property>
    <property name="Min">6=0.596</property>
    <property name="Max">6=0</property>
    <property name="Operation">0.0</property>
    <property name="kdenlive_info"/>
    <property name="disable">0</property>
   </filter>
  </entry>
  <entry in="0" out="99" producer="3">
   <filter id="filter3">
    <property name="track">0</property>
    <property name="version">0.1</property>
    <property name="mlt_type">filter</property>
    <property name="mlt_service">frei0r.alphaspot</property>
    <property name="kdenlive_id">frei0r.alphaspot</property>
    <property name="tag">frei0r.alphaspot</property>
    <property name="kdenlive_ix">1</property>
    <property name="kdenlive_info"/>
    <property name="disable">0</property>
    <property name="Shape">0.38</property>
    <property name="Position X">0=0.543</property>
    <property name="Position Y">0=0.125</property>
    <property name="Size X">0=0.064</property>
    <property name="Size Y">0=0.096</property>
    <property name="Tilt">0=0.5</property>
    <property name="Transition width">0=0</property>
    <property name="Min">0=0.596</property>
    <property name="Max">0=0</property>
    <property name="Operation">0.0</property>
   </filter>
  </entry>
  <blank length="131"/>
  <entry in="16" out="52" producer="7"/>
  <blank length="296"/>
  <entry in="0" out="65" producer="9"/>
  <blank length="230"/>
  <entry in="6" out="61" producer="3">
   <filter id="filter4">
    <property name="track">0</property>
    <property name="version">0.1</property>
    <property name="mlt_type">filter</property>
    <property name="mlt_service">frei0r.alphaspot</property>
    <property name="kdenlive_id">frei0r.alphaspot</property>
    <property name="tag">frei0r.alphaspot</property>
    <property name="kdenlive_ix">1</property>
    <property name="kdenlive_info"/>
    <property name="Shape">0.38</property>
    <property name="Position X">6=0.668</property>
    <property name="Position Y">6=0.125</property>
    <property name="Size X">6=0.064</property>
    <property name="Size Y">6=0.096</property>
    <property name="Tilt">6=0.5</property>
    <property name="Transition width">6=0</property>
    <property name="Min">6=0.596</property>
    <property name="Max">6=0</property>
    <property name="Operation">0.0</property>
   </filter>
  </entry>
  <blank length="22"/>
  <entry in="6" out="61" producer="3">
   <filter id="filter5">
    <property name="track">0</property>
    <property name="version">0.1</property>
    <property name="mlt_type">filter</property>
    <property name="mlt_service">frei0r.alphaspot</property>
    <property name="kdenlive_id">frei0r.alphaspot</property>
    <property name="tag">frei0r.alphaspot</property>
    <property name="kdenlive_ix">1</property>
    <property name="kdenlive_info"/>
    <property name="Shape">0.38</property>
    <property name="Position X">6=0.862</property>
    <property name="Position Y">6=0.415</property>
    <property name="Size X">6=0.064</property>
    <property name="Size Y">6=0.096</property>
    <property name="Tilt">6=0.5</property>
    <property name="Transition width">6=0</property>
    <property name="Min">6=0.596</property>
    <property name="Max">6=0</property>
    <property name="Operation">0.0</property>
   </filter>
  </entry>
  <blank length="603"/>
  <entry in="8856" out="8886" producer="1"/>
  <blank length="42"/>
  <entry in="6" out="61" producer="3">
   <filter id="filter6">
    <property name="track">0</property>
    <property name="version">0.1</property>
    <property name="mlt_type">filter</property>
    <property name="mlt_service">frei0r.alphaspot</property>
    <property name="kdenlive_id">frei0r.alphaspot</property>
    <property name="tag">frei0r.alphaspot</property>
    <property name="kdenlive_ix">1</property>
    <property name="kdenlive_info"/>
    <property name="Shape">0.38</property>
    <property name="Position X">6=0.138</property>
    <property name="Position Y">6=0.54</property>
    <property name="Size X">6=0.064</property>
    <property name="Size Y">6=0.096</property>
    <property name="Tilt">6=0.5</property>
    <property name="Transition width">6=0</property>
    <property name="Min">6=0.596</property>
    <property name="Max">6=0</property>
    <property name="Operation">0.0</property>
   </filter>
  </entry>
  <blank length="141"/>
  <entry in="6" out="61" producer="3">
   <filter id="filter7">
    <property name="track">0</property>
    <property name="version">0.1</property>
    <property name="mlt_type">filter</property>
    <property name="mlt_service">frei0r.alphaspot</property>
    <property name="kdenlive_id">frei0r.alphaspot</property>
    <property name="tag">frei0r.alphaspot</property>
    <property name="kdenlive_ix">1</property>
    <property name="kdenlive_info"/>
    <property name="Shape">0.38</property>
    <property name="Position X">6=0.38</property>
    <property name="Position Y">6=0.396</property>
    <property name="Size X">6=0.064</property>
    <property name="Size Y">6=0.096</property>
    <property name="Tilt">6=0.5</property>
    <property name="Transition width">6=0</property>
    <property name="Min">6=0.596</property>
    <property name="Max">6=0</property>
    <property name="Operation">0.0</property>
   </filter>
  </entry>
  <blank length="51"/>
  <entry in="6" out="61" producer="3">
   <filter id="filter8">
    <property name="track">0</property>
    <property name="version">0.1</property>
    <property name="mlt_type">filter</property>
    <property name="mlt_service">frei0r.alphaspot</property>
    <property name="kdenlive_id">frei0r.alphaspot</property>
    <property name="tag">frei0r.alphaspot</property>
    <property name="kdenlive_ix">1</property>
    <property name="kdenlive_info"/>
    <property name="Shape">0.38</property>
    <property name="Position X">6=0.537</property>
    <property name="Position Y">6=0.444</property>
    <property name="Size X">6=0.096</property>
    <property name="Size Y">6=0.096</property>
    <property name="Tilt">6=0.5</property>
    <property name="Transition width">6=0</property>
    <property name="Min">6=0.596</property>
    <property name="Max">6=0</property>
    <property name="Operation">0.0</property>
   </filter>
  </entry>
 </playlist>
 <tractor title="Anonymous Submission" global_feed="1" in="0" out="3548" id="maintractor">
  <property name="meta.volume">1</property>
  <track producer="black_track"/>
  <track hide="video" producer="playlist0"/>
  <track hide="video" producer="playlist1"/>
  <track producer="playlist3"/>
  <track producer="playlist4"/>
  <track producer="playlist5"/>
  <transition id="transition0">
   <property name="a_track">1</property>
   <property name="b_track">2</property>
   <property name="mlt_type">transition</property>
   <property name="mlt_service">mix</property>
   <property name="always_active">1</property>
   <property name="combine">1</property>
   <property name="internal_added">237</property>
  </transition>
  <transition id="transition1">
   <property name="a_track">1</property>
   <property name="b_track">3</property>
   <property name="mlt_type">transition</property>
   <property name="mlt_service">mix</property>
   <property name="always_active">1</property>
   <property name="combine">1</property>
   <property name="internal_added">237</property>
  </transition>
  <transition id="transition2">
   <property name="a_track">1</property>
   <property name="b_track">4</property>
   <property name="mlt_type">transition</property>
   <property name="mlt_service">mix</property>
   <property name="always_active">1</property>
   <property name="internal_added">237</property>
   <property name="combine">1</property>
  </transition>
  <transition id="transition3">
   <property name="a_track">1</property>
   <property name="b_track">5</property>
   <property name="mlt_type">transition</property>
   <property name="mlt_service">mix</property>
   <property name="always_active">1</property>
   <property name="internal_added">237</property>
   <property name="combine">1</property>
  </transition>
  <transition in="91" out="123" id="transition4">
   <property name="a_track">4</property>
   <property name="b_track">5</property>
   <property name="factory">loader</property>
   <property name="mlt_type">transition</property>
   <property name="mlt_service">luma</property>
   <property name="automatic">1</property>
   <property name="kdenlive_id">dissolve</property>
   <property name="force_track">0</property>
   <property name="reverse">0</property>
  </transition>
  <transition in="124" out="146" id="transition5">
   <property name="a_track">4</property>
   <property name="b_track">5</property>
   <property name="factory">loader</property>
   <property name="mlt_type">transition</property>
   <property name="mlt_service">luma</property>
   <property name="automatic">1</property>
   <property name="kdenlive_id">dissolve</property>
   <property name="force_track">0</property>
   <property name="reverse">1</property>
  </transition>
  <transition in="147" out="205" id="transition6">
   <property name="a_track">4</property>
   <property name="b_track">5</property>
   <property name="factory">loader</property>
   <property name="mlt_type">transition</property>
   <property name="mlt_service">luma</property>
   <property name="automatic">1</property>
   <property name="kdenlive_id">dissolve</property>
   <property name="force_track">0</property>
   <property name="reverse">0</property>
  </transition>
  <transition in="206" out="246" id="transition7">
   <property name="a_track">4</property>
   <property name="b_track">5</property>
   <property name="factory">loader</property>
   <property name="mlt_type">transition</property>
   <property name="mlt_service">luma</property>
   <property name="automatic">1</property>
   <property name="kdenlive_id">dissolve</property>
   <property name="force_track">0</property>
   <property name="reverse">1</property>
  </transition>
  <transition in="399" out="414" id="transition8">
   <property name="a_track">4</property>
   <property name="b_track">5</property>
   <property name="factory">loader</property>
   <property name="mlt_type">transition</property>
   <property name="mlt_service">luma</property>
   <property name="automatic">1</property>
   <property name="kdenlive_id">dissolve</property>
   <property name="force_track">0</property>
   <property name="reverse">1</property>
  </transition>
  <transition in="378" out="398" id="transition9">
   <property name="a_track">4</property>
   <property name="b_track">5</property>
   <property name="factory">loader</property>
   <property name="mlt_type">transition</property>
   <property name="mlt_service">luma</property>
   <property name="automatic">1</property>
   <property name="kdenlive_id">dissolve</property>
   <property name="force_track">0</property>
   <property name="reverse">0</property>
  </transition>
  <transition in="711" out="749" id="transition10">
   <property name="a_track">4</property>
   <property name="b_track">5</property>
   <property name="factory">loader</property>
   <property name="mlt_type">transition</property>
   <property name="mlt_service">luma</property>
   <property name="automatic">1</property>
   <property name="kdenlive_id">dissolve</property>
   <property name="force_track">0</property>
   <property name="reverse">0</property>
  </transition>
  <transition in="750" out="776" id="transition11">
   <property name="a_track">4</property>
   <property name="b_track">5</property>
   <property name="factory">loader</property>
   <property name="mlt_type">transition</property>
   <property name="mlt_service">luma</property>
   <property name="automatic">1</property>
   <property name="kdenlive_id">dissolve</property>
   <property name="force_track">0</property>
   <property name="reverse">1</property>
  </transition>
  <transition in="1044" out="1062" id="transition12">
   <property name="a_track">4</property>
   <property name="b_track">5</property>
   <property name="factory">loader</property>
   <property name="mlt_type">transition</property>
   <property name="mlt_service">luma</property>
   <property name="automatic">1</property>
   <property name="kdenlive_id">dissolve</property>
   <property name="force_track">0</property>
   <property name="reverse">1</property>
  </transition>
  <transition in="1007" out="1043" id="transition13">
   <property name="a_track">4</property>
   <property name="b_track">5</property>
   <property name="factory">loader</property>
   <property name="mlt_type">transition</property>
   <property name="mlt_service">luma</property>
   <property name="automatic">1</property>
   <property name="kdenlive_id">dissolve</property>
   <property name="force_track">0</property>
   <property name="reverse">0</property>
  </transition>
  <transition in="1123" out="1140" id="transition14">
   <property name="a_track">4</property>
   <property name="b_track">5</property>
   <property name="factory">loader</property>
   <property name="mlt_type">transition</property>
   <property name="mlt_service">luma</property>
   <property name="automatic">1</property>
   <property name="kdenlive_id">dissolve</property>
   <property name="force_track">0</property>
   <property name="reverse">1</property>
  </transition>
  <transition in="1085" out="1122" id="transition15">
   <property name="a_track">4</property>
   <property name="b_track">5</property>
   <property name="factory">loader</property>
   <property name="mlt_type">transition</property>
   <property name="mlt_service">luma</property>
   <property name="automatic">1</property>
   <property name="kdenlive_id">dissolve</property>
   <property name="force_track">0</property>
   <property name="reverse">0</property>
  </transition>
  <transition in="1744" out="1748" id="transition16">
   <property name="a_track">4</property>
   <property name="b_track">5</property>
   <property name="factory">loader</property>
   <property name="mlt_type">transition</property>
   <property name="mlt_service">luma</property>
   <property name="automatic">1</property>
   <property name="kdenlive_id">dissolve</property>
   <property name="force_track">0</property>
   <property name="reverse">0</property>
  </transition>
  <transition in="1772" out="1774" id="transition17">
   <property name="a_track">4</property>
   <property name="b_track">5</property>
   <property name="factory">loader</property>
   <property name="mlt_type">transition</property>
   <property name="mlt_service">luma</property>
   <property name="automatic">1</property>
   <property name="kdenlive_id">dissolve</property>
   <property name="force_track">0</property>
   <property name="reverse">1</property>
  </transition>
  <transition in="1849" out="1872" id="transition18">
   <property name="a_track">4</property>
   <property name="b_track">5</property>
   <property name="factory">loader</property>
   <property name="mlt_type">transition</property>
   <property name="mlt_service">luma</property>
   <property name="automatic">1</property>
   <property name="kdenlive_id">dissolve</property>
   <property name="force_track">0</property>
   <property name="reverse">1</property>
  </transition>
  <transition in="1817" out="1848" id="transition19">
   <property name="a_track">4</property>
   <property name="b_track">5</property>
   <property name="factory">loader</property>
   <property name="mlt_type">transition</property>
   <property name="mlt_service">luma</property>
   <property name="automatic">1</property>
   <property name="kdenlive_id">dissolve</property>
   <property name="force_track">0</property>
   <property name="reverse">0</property>
  </transition>
  <transition in="2047" out="2069" id="transition20">
   <property name="a_track">4</property>
   <property name="b_track">5</property>
   <property name="factory">loader</property>
   <property name="mlt_type">transition</property>
   <property name="mlt_service">luma</property>
   <property name="automatic">1</property>
   <property name="kdenlive_id">dissolve</property>
   <property name="force_track">0</property>
   <property name="reverse">1</property>
  </transition>
  <transition in="2014" out="2046" id="transition21">
   <property name="a_track">4</property>
   <property name="b_track">5</property>
   <property name="factory">loader</property>
   <property name="mlt_type">transition</property>
   <property name="mlt_service">luma</property>
   <property name="automatic">1</property>
   <property name="kdenlive_id">dissolve</property>
   <property name="force_track">0</property>
   <property name="reverse">0</property>
  </transition>
  <transition in="2155" out="2176" id="transition22">
   <property name="a_track">4</property>
   <property name="b_track">5</property>
   <property name="factory">loader</property>
   <property name="mlt_type">transition</property>
   <property name="mlt_service">luma</property>
   <property name="automatic">1</property>
   <property name="kdenlive_id">dissolve</property>
   <property name="force_track">0</property>
   <property name="reverse">1</property>
  </transition>
  <transition in="2121" out="2154" id="transition23">
   <property name="a_track">4</property>
   <property name="b_track">5</property>
   <property name="factory">loader</property>
   <property name="mlt_type">transition</property>
   <property name="mlt_service">luma</property>
   <property name="automatic">1</property>
   <property name="kdenlive_id">dissolve</property>
   <property name="force_track">0</property>
   <property name="reverse">0</property>
  </transition>
  <transition in="247" out="251" id="transition24">
   <property name="a_track">3</property>
   <property name="b_track">4</property>
   <property name="factory">loader</property>
   <property name="mlt_type">transition</property>
   <property name="mlt_service">luma</property>
   <property name="automatic">1</property>
   <property name="kdenlive_id">dissolve</property>
   <property name="force_track">0</property>
   <property name="reverse">1</property>
  </transition>
  <transition in="85" out="90" id="transition25">
   <property name="a_track">3</property>
   <property name="b_track">4</property>
   <property name="factory">loader</property>
   <property name="mlt_type">transition</property>
   <property name="mlt_service">luma</property>
   <property name="automatic">1</property>
   <property name="kdenlive_id">dissolve</property>
   <property name="force_track">0</property>
   <property name="reverse">0</property>
  </transition>
  <transition in="281" out="284" id="transition26">
   <property name="a_track">3</property>
   <property name="b_track">4</property>
   <property name="factory">loader</property>
   <property name="mlt_type">transition</property>
   <property name="mlt_service">luma</property>
   <property name="automatic">1</property>
   <property name="kdenlive_id">dissolve</property>
   <property name="force_track">0</property>
   <property name="reverse">0</property>
  </transition>
  <transition in="442" out="444" id="transition27">
   <property name="a_track">3</property>
   <property name="b_track">4</property>
   <property name="factory">loader</property>
   <property name="mlt_type">transition</property>
   <property name="mlt_service">luma</property>
   <property name="automatic">1</property>
   <property name="kdenlive_id">dissolve</property>
   <property name="force_track">0</property>
   <property name="reverse">1</property>
  </transition>
  <transition in="559" out="580" id="transition28">
   <property name="a_track">3</property>
   <property name="b_track">4</property>
   <property name="factory">loader</property>
   <property name="mlt_type">transition</property>
   <property name="mlt_service">luma</property>
   <property name="automatic">1</property>
   <property name="kdenlive_id">dissolve</property>
   <property name="force_track">0</property>
   <property name="reverse">1</property>
  </transition>
  <transition in="525" out="558" id="transition29">
   <property name="a_track">3</property>
   <property name="b_track">4</property>
   <property name="factory">loader</property>
   <property name="mlt_type">transition</property>
   <property name="mlt_service">luma</property>
   <property name="automatic">1</property>
   <property name="kdenlive_id">dissolve</property>
   <property name="force_track">0</property>
   <property name="reverse">0</property>
  </transition>
  <transition in="1358" out="1360" id="transition30">
   <property name="a_track">3</property>
   <property name="b_track">4</property>
   <property name="factory">loader</property>
   <property name="mlt_type">transition</property>
   <property name="mlt_service">luma</property>
   <property name="automatic">1</property>
   <property name="kdenlive_id">dissolve</property>
   <property name="force_track">0</property>
   <property name="reverse">1</property>
  </transition>
  <transition in="1361" out="1394" id="transition31">
   <property name="a_track">3</property>
   <property name="b_track">4</property>
   <property name="factory">loader</property>
   <property name="mlt_type">transition</property>
   <property name="mlt_service">luma</property>
   <property name="automatic">1</property>
   <property name="kdenlive_id">dissolve</property>
   <property name="force_track">0</property>
   <property name="reverse">0</property>
  </transition>
  <transition in="1395" out="1416" id="transition32">
   <property name="a_track">3</property>
   <property name="b_track">4</property>
   <property name="factory">loader</property>
   <property name="mlt_type">transition</property>
   <property name="mlt_service">luma</property>
   <property name="automatic">1</property>
   <property name="kdenlive_id">dissolve</property>
   <property name="force_track">0</property>
   <property name="reverse">1</property>
  </transition>
  <transition in="1425" out="1429" id="transition33">
   <property name="a_track">3</property>
   <property name="b_track">4</property>
   <property name="factory">loader</property>
   <property name="mlt_type">transition</property>
   <property name="mlt_service">luma</property>
   <property name="automatic">1</property>
   <property name="kdenlive_id">dissolve</property>
   <property name="force_track">0</property>
   <property name="reverse">0</property>
  </transition>
  <transition in="1550" out="1554" id="transition34">
   <property name="a_track">3</property>
   <property name="b_track">4</property>
   <property name="factory">loader</property>
   <property name="mlt_type">transition</property>
   <property name="mlt_service">luma</property>
   <property name="automatic">1</property>
   <property name="kdenlive_id">dissolve</property>
   <property name="force_track">0</property>
   <property name="reverse">1</property>
  </transition>
  <transition in="1555" out="1585" id="transition35">
   <property name="a_track">3</property>
   <property name="b_track">4</property>
   <property name="factory">loader</property>
   <property name="mlt_type">transition</property>
   <property name="mlt_service">luma</property>
   <property name="automatic">1</property>
   <property name="kdenlive_id">dissolve</property>
   <property name="force_track">0</property>
   <property name="reverse">0</property>
  </transition>
  <transition in="1586" out="1610" id="transition36">
   <property name="a_track">3</property>
   <property name="b_track">4</property>
   <property name="factory">loader</property>
   <property name="mlt_type">transition</property>
   <property name="mlt_service">luma</property>
   <property name="automatic">1</property>
   <property name="kdenlive_id">dissolve</property>
   <property name="force_track">0</property>
   <property name="reverse">1</property>
  </transition>
  <transition in="1651" out="1653" id="transition37">
   <property name="a_track">3</property>
   <property name="b_track">4</property>
   <property name="factory">loader</property>
   <property name="mlt_type">transition</property>
   <property name="mlt_service">luma</property>
   <property name="automatic">1</property>
   <property name="kdenlive_id">dissolve</property>
   <property name="force_track">0</property>
   <property name="reverse">0</property>
  </transition>
  <transition in="1876" out="1880" id="transition38">
   <property name="a_track">3</property>
   <property name="b_track">4</property>
   <property name="factory">loader</property>
   <property name="mlt_type">transition</property>
   <property name="mlt_service">luma</property>
   <property name="automatic">1</property>
   <property name="kdenlive_id">dissolve</property>
   <property name="force_track">0</property>
   <property name="reverse">1</property>
  </transition>
  <transition in="1939" out="1941" id="transition39">
   <property name="a_track">3</property>
   <property name="b_track">4</property>
   <property name="factory">loader</property>
   <property name="mlt_type">transition</property>
   <property name="mlt_service">luma</property>
   <property name="automatic">1</property>
   <property name="kdenlive_id">dissolve</property>
   <property name="force_track">0</property>
   <property name="reverse">0</property>
  </transition>
  <transition in="2191" out="2193" id="transition40">
   <property name="a_track">3</property>
   <property name="b_track">4</property>
   <property name="factory">loader</property>
   <property name="mlt_type">transition</property>
   <property name="mlt_service">luma</property>
   <property name="automatic">1</property>
   <property name="kdenlive_id">dissolve</property>
   <property name="force_track">0</property>
   <property name="reverse">1</property>
  </transition>
  <transition in="2293" out="2297" id="transition41">
   <property name="a_track">3</property>
   <property name="b_track">4</property>
   <property name="factory">loader</property>
   <property name="mlt_type">transition</property>
   <property name="mlt_service">luma</property>
   <property name="automatic">1</property>
   <property name="kdenlive_id">dissolve</property>
   <property name="force_track">0</property>
   <property name="reverse">0</property>
  </transition>
  <transition in="2331" out="2333" id="transition42">
   <property name="a_track">3</property>
   <property name="b_track">4</property>
   <property name="factory">loader</property>
   <property name="mlt_type">transition</property>
   <property name="mlt_service">luma</property>
   <property name="automatic">1</property>
   <property name="kdenlive_id">dissolve</property>
   <property name="force_track">0</property>
   <property name="reverse">1</property>
  </transition>
  <transition in="2462" out="2464" id="transition43">
   <property name="a_track">3</property>
   <property name="b_track">4</property>
   <property name="factory">loader</property>
   <property name="mlt_type">transition</property>
   <property name="mlt_service">luma</property>
   <property name="automatic">1</property>
   <property name="kdenlive_id">dissolve</property>
   <property name="force_track">0</property>
   <property name="reverse">0</property>
  </transition>
  <transition in="2498" out="2501" id="transition44">
   <property name="a_track">3</property>
   <property name="b_track">4</property>
   <property name="factory">loader</property>
   <property name="mlt_type">transition</property>
   <property name="mlt_service">luma</property>
   <property name="automatic">1</property>
   <property name="kdenlive_id">dissolve</property>
   <property name="force_track">0</property>
   <property name="reverse">1</property>
  </transition>
  <transition in="2532" out="2534" id="transition45">
   <property name="a_track">3</property>
   <property name="b_track">4</property>
   <property name="factory">loader</property>
   <property name="mlt_type">transition</property>
   <property name="mlt_service">luma</property>
   <property name="automatic">1</property>
   <property name="kdenlive_id">dissolve</property>
   <property name="force_track">0</property>
   <property name="reverse">0</property>
  </transition>
  <transition in="2683" out="2685" id="transition46">
   <property name="a_track">3</property>
   <property name="b_track">4</property>
   <property name="factory">loader</property>
   <property name="mlt_type">transition</property>
   <property name="mlt_service">luma</property>
   <property name="automatic">1</property>
   <property name="kdenlive_id">dissolve</property>
   <property name="force_track">0</property>
   <property name="reverse">1</property>
  </transition>
  <transition in="2767" out="2769" id="transition47">
   <property name="a_track">3</property>
   <property name="b_track">4</property>
   <property name="factory">loader</property>
   <property name="mlt_type">transition</property>
   <property name="mlt_service">luma</property>
   <property name="automatic">1</property>
   <property name="kdenlive_id">dissolve</property>
   <property name="force_track">0</property>
   <property name="reverse">1</property>
  </transition>
  <transition in="2797" out="2799" id="transition48">
   <property name="a_track">3</property>
   <property name="b_track">4</property>
   <property name="factory">loader</property>
   <property name="mlt_type">transition</property>
   <property name="mlt_service">luma</property>
   <property name="automatic">1</property>
   <property name="kdenlive_id">dissolve</property>
   <property name="force_track">0</property>
   <property name="reverse">0</property>
  </transition>
  <transition in="2839" out="2841" id="transition49">
   <property name="a_track">3</property>
   <property name="b_track">4</property>
   <property name="factory">loader</property>
   <property name="mlt_type">transition</property>
   <property name="mlt_service">luma</property>
   <property name="automatic">1</property>
   <property name="kdenlive_id">dissolve</property>
   <property name="force_track">0</property>
   <property name="reverse">1</property>
  </transition>
  <transition in="2934" out="2936" id="transition50">
   <property name="a_track">3</property>
   <property name="b_track">4</property>
   <property name="factory">loader</property>
   <property name="mlt_type">transition</property>
   <property name="mlt_service">luma</property>
   <property name="automatic">1</property>
   <property name="kdenlive_id">dissolve</property>
   <property name="force_track">0</property>
   <property name="reverse">0</property>
  </transition>
  <transition in="3033" out="3035" id="transition51">
   <property name="a_track">3</property>
   <property name="b_track">4</property>
   <property name="factory">loader</property>
   <property name="mlt_type">transition</property>
   <property name="mlt_service">luma</property>
   <property name="automatic">1</property>
   <property name="kdenlive_id">dissolve</property>
   <property name="force_track">0</property>
   <property name="reverse">1</property>
  </transition>
  <transition in="3116" out="3118" id="transition52">
   <property name="a_track">3</property>
   <property name="b_track">4</property>
   <property name="factory">loader</property>
   <property name="mlt_type">transition</property>
   <property name="mlt_service">luma</property>
   <property name="automatic">1</property>
   <property name="kdenlive_id">dissolve</property>
   <property name="force_track">0</property>
   <property name="reverse">0</property>
  </transition>
  <transition in="3150" out="3152" id="transition53">
   <property name="a_track">3</property>
   <property name="b_track">4</property>
   <property name="factory">loader</property>
   <property name="mlt_type">transition</property>
   <property name="mlt_service">luma</property>
   <property name="automatic">1</property>
   <property name="kdenlive_id">dissolve</property>
   <property name="force_track">0</property>
   <property name="reverse">1</property>
  </transition>
  <transition in="3193" out="3195" id="transition54">
   <property name="a_track">3</property>
   <property name="b_track">4</property>
   <property name="factory">loader</property>
   <property name="mlt_type">transition</property>
   <property name="mlt_service">luma</property>
   <property name="automatic">1</property>
   <property name="kdenlive_id">dissolve</property>
   <property name="force_track">0</property>
   <property name="reverse">0</property>
  </transition>
  <transition in="3248" out="3250" id="transition55">
   <property name="a_track">3</property>
   <property name="b_track">4</property>
   <property name="factory">loader</property>
   <property name="mlt_type">transition</property>
   <property name="mlt_service">luma</property>
   <property name="automatic">1</property>
   <property name="kdenlive_id">dissolve</property>
   <property name="force_track">0</property>
   <property name="reverse">1</property>
  </transition>
  <transition in="3282" out="3284" id="transition56">
   <property name="a_track">3</property>
   <property name="b_track">4</property>
   <property name="factory">loader</property>
   <property name="mlt_type">transition</property>
   <property name="mlt_service">luma</property>
   <property name="automatic">1</property>
   <property name="kdenlive_id">dissolve</property>
   <property name="force_track">0</property>
   <property name="reverse">0</property>
  </transition>
 </tractor>
 <kdenlivedoc profile="hdv_720_25p" kdenliveversion="0.9.10" version="0.88" projectfolder="/home/pelya/kino/kdenlive">
  <customeffects/>
  <documentproperties documentid="1420892986283" renderaudiobitrate="128" renderdestination="" renderrescalewidth="320" proxyextension="ts" generateproxy="0" proxyimageminsize="2000" rendertctype="0" verticalzoom="1" renderprofile="H.264/AAC High Profile" renderrescaleheight="240" zonein="45" renderrescale="0" renderscanning="1" renderurl="/home/pelya/kino/kdenlive/openttd-buses.mp4" rendertwopass="0" renderplay="0" position="3548" proxyminsize="1000" renderstartguide="-1" zoom="4" rendercategory="MP4" renderratio="0" zoneout="90" renderbitrate="10" renderzone="0" renderendguide="-1" renderexportaudio="0" proxyparams="-f mpegts -acodec libmp3lame -ac 2 -ab 128k -vcodec mpeg2video -g 5 -s 640x480 -qscale 7" enableproxy="0" generateimageproxy="0" renderguide="0" rendertcoverlay="0"/>
  <documentmetadata/>
  <documentnotes>&lt;!DOCTYPE HTML PUBLIC "-//W3C//DTD HTML 4.0//EN" "http://www.w3.org/TR/REC-html40/strict.dtd">
&lt;html>&lt;head>&lt;meta name="qrichtext" content="1" />&lt;style type="text/css">
p, li { white-space: pre-wrap; }
&lt;/style>&lt;/head>&lt;body style=" font-family:'DejaVu Sans'; font-size:8pt; font-weight:400; font-style:normal;">
&lt;p style="-qt-paragraph-type:empty; margin-top:0px; margin-bottom:0px; margin-left:0px; margin-right:0px; -qt-block-indent:0; text-indent:0px;">&lt;br />&lt;/p>&lt;/body>&lt;/html></documentnotes>
  <profileinfo width="1280" display_aspect_den="9" frame_rate_den="1" description="HD 720p 25 fps" height="720" frame_rate_num="25" display_aspect_num="16" progressive="1" sample_aspect_num="1" sample_aspect_den="1"/>
  <tracksinfo>
   <trackinfo blind="1" mute="0" locked="0" trackname="Audio 2" type="audio"/>
   <trackinfo blind="1" mute="0" locked="0" trackname="Audio 1" type="audio"/>
   <trackinfo blind="0" mute="0" locked="0" trackname="Video 3"/>
   <trackinfo blind="0" mute="0" locked="0" trackname="Video 2"/>
   <trackinfo blind="0" mute="0" locked="0" trackname="Video 1"/>
  </tracksinfo>
  <kdenlive_producer audio_max="0" id="1" pix_fmt="yuv420p" default_video="0" fps="42.5833" analysisdata="" name="openttd-buses-raw.mp4" videocodecid="h264" colorspace="709" videocodec="H.264 / AVC / MPEG-4 AVC / MPEG-4 part 10" resource="/home/pelya/kino/kdenlive/openttd-buses-raw.mp4" default_audio="-1" duration="13520" file_hash="ce8e3d9cb9d08604b6120fac69143716" aspect_ratio="1" video_max="0" progressive="1" type="2" frame_size="1280x720" file_size="580090448">
   <metaproperty tool="" name="meta.attr.0.stream.creation_time">2015-01-09 19:17:50</metaproperty>
   <metaproperty tool="" name="meta.attr.0.stream.language">eng</metaproperty>
   <metaproperty tool="" name="meta.attr.compatible_brands">isommp42</metaproperty>
   <metaproperty tool="" name="meta.attr.creation_time">2015-01-09 19:17:50</metaproperty>
   <metaproperty tool="" name="meta.attr.major_brand">mp42</metaproperty>
   <metaproperty tool="" name="meta.attr.minor_version">0</metaproperty>
  </kdenlive_producer>
  <kdenlive_producer duration="125" frame_size="1280x720" in="0" analysisdata="" file_size="1700753" aspect_ratio="1" out="124" file_hash="5b6c6159480e2d3df9804680b35e1e20" type="5" id="2" name="openttd-buses-intro-frame.png" resource="/home/pelya/kino/kdenlive/openttd-buses-intro-frame.png"/>
  <kdenlive_producer duration="125" frame_size="1280x720" thumbnail="100" in="0" analysisdata="" file_size="5361" aspect_ratio="1" out="124" file_hash="51f145ebaff1a5169ec67a04aa3f6408" type="5" id="3" name="black.png" resource="/home/pelya/kino/kdenlive/black.png"/>
  <kdenlive_producer duration="125" frame_size="1280x720" in="0" analysisdata="" file_size="1587323" aspect_ratio="1" out="124" file_hash="2d9a55bd8f254de90a4ac95d765c59ce" type="5" id="6" name="missed-it.png" resource="/home/pelya/kino/kdenlive/missed-it.png"/>
  <kdenlive_producer duration="125" frame_size="720x720" thumbnail="100" in="0" analysisdata="" file_size="17921" aspect_ratio="1" out="124" file_hash="8a80f1c05b3c25ca95515e2da6179001" type="5" id="7" name="two_fingers_double_tap.png" resource="/home/pelya/kino/kdenlive/two_fingers_double_tap.png"/>
  <kdenlive_producer duration="125" frame_size="1280x720" in="0" analysisdata="" file_size="1612895" aspect_ratio="1" out="124" file_hash="a2e185493722123ff87e29add0b5ac45" type="5" id="8" name="zoom-in.png" resource="/home/pelya/kino/kdenlive/zoom-in.png"/>
  <kdenlive_producer duration="125" frame_size="720x720" thumbnail="100" in="0" analysisdata="" file_size="11818" aspect_ratio="1" out="124" file_hash="52f0f23cf054cc5adbe361f9e0abb877" type="5" id="9" name="two_fingers_swipe_left.png" resource="/home/pelya/kino/kdenlive/two_fingers_swipe_left.png"/>
  <kdenlive_producer duration="125" frame_size="1280x720" in="0" analysisdata="" file_size="1668147" aspect_ratio="1" out="124" file_hash="c7956979465934bffe8f9c5c85b4ad12" type="5" id="10" name="click-depot.png" resource="/home/pelya/kino/kdenlive/click-depot.png"/>
  <kdenlive_producer duration="125" frame_size="1280x720" in="0" analysisdata="" file_size="1016816" aspect_ratio="1" out="124" file_hash="33b984df54b063f817e6df064f866346" type="5" id="11" name="click-depot-2.png" resource="/home/pelya/kino/kdenlive/click-depot-2.png"/>
  <kdenlive_producer duration="125" frame_size="1280x720" in="0" analysisdata="" file_size="1192371" aspect_ratio="1" out="124" file_hash="528320d698484ffc2d7ae3e9ce425c3c" type="5" id="12" name="buy-vehicle.png" resource="/home/pelya/kino/kdenlive/buy-vehicle.png"/>
  <kdenlive_producer duration="125" frame_size="1280x720" in="0" analysisdata="" file_size="1202076" aspect_ratio="1" out="124" file_hash="e472c71243ecefd392f5bbad1c4f6c75" type="5" id="13" name="click-orders.png" resource="/home/pelya/kino/kdenlive/click-orders.png"/>
  <kdenlive_producer duration="125" frame_size="1280x720" in="0" analysisdata="" file_size="1651648" aspect_ratio="1" out="124" file_hash="824c28db58648b84903c541cb4be459a" type="5" id="14" name="go-to-station.png" resource="/home/pelya/kino/kdenlive/go-to-station.png"/>
  <kdenlive_producer duration="125" frame_size="1280x720" in="0" analysisdata="" file_size="1593611" aspect_ratio="1" out="124" file_hash="671ad3c4bd52ad8cd8a456852b108740" type="5" id="15" name="go-to-station-2.png" resource="/home/pelya/kino/kdenlive/go-to-station-2.png"/>
  <kdenlive_producer duration="125" frame_size="1280x720" in="0" analysisdata="" file_size="1199713" aspect_ratio="1" out="124" file_hash="7046b500f8943e81227ae305f735cec0" type="5" id="16" name="start-vehicle.png" resource="/home/pelya/kino/kdenlive/start-vehicle.png"/>
  <kdenlive_producer audio_max="58" audiocodec="PCM signed 16-bit little-endian" channels="1" duration="15" frame_size="1280x720" frequency="22050" analysisdata="" file_size="26664" aspect_ratio="0" file_hash="5cda25119f13fd64a80f977b9325465a" type="1" id="18" name="04-Missed-it-.wav.wav" resource="/home/pelya/kino/kdenlive/talk/04-Missed-it-.wav.wav"/>
  <kdenlive_producer audio_max="63" audiocodec="PCM signed 16-bit little-endian" channels="1" duration="23" frame_size="1280x720" frequency="22050" analysisdata="" file_size="40964" aspect_ratio="0" file_hash="8f38c2aec209649b96bc4cce15276171" type="1" id="19" name="01-Bus-service-.wav.wav" resource="/home/pelya/kino/kdenlive/talk/01-Bus-service-.wav.wav"/>
  <kdenlive_producer audio_max="61" audiocodec="PCM signed 16-bit little-endian" channels="1" duration="43" frame_size="1280x720" frequency="22050" analysisdata="" file_size="77484" aspect_ratio="0" file_hash="b94e47f535da5d342178e27ea891cf75" type="1" id="20" name="02-Select-road-builder-tool-.wav.wav" resource="/home/pelya/kino/kdenlive/talk/02-Select-road-builder-tool-.wav.wav"/>
  <kdenlive_producer audio_max="62" audiocodec="PCM signed 16-bit little-endian" channels="1" duration="22" frame_size="1280x720" frequency="22050" analysisdata="" file_size="38984" aspect_ratio="0" file_hash="5742eb9bbdf4efbae6b26d032b4df088" type="1" id="21" name="03-Draw-a-line-.wav.wav" resource="/home/pelya/kino/kdenlive/talk/03-Draw-a-line-.wav.wav"/>
  <kdenlive_producer audio_max="62" audiocodec="PCM signed 16-bit little-endian" channels="1" duration="68" frame_size="1280x720" frequency="22050" analysisdata="" file_size="121484" aspect_ratio="0" file_hash="3310ec7a1dcebed521cb95d7726b3cad" type="1" id="22" name="05-Touch-the-screen-with-two-fingers-to-cancel-.wav.wav" resource="/home/pelya/kino/kdenlive/talk/05-Touch-the-screen-with-two-fingers-to-cancel-.wav.wav"/>
  <kdenlive_producer audio_max="60" audiocodec="PCM signed 16-bit little-endian" channels="1" duration="57" frame_size="1280x720" frequency="22050" analysisdata="" file_size="102124" aspect_ratio="0" file_hash="fad3944d6da3f297b42e81bfa06fd82f" type="1" id="23" name="06-Zoom---in---for-better-control-.wav.wav" resource="/home/pelya/kino/kdenlive/talk/06-Zoom---in---for-better-control-.wav.wav"/>
  <kdenlive_producer audio_max="63" audiocodec="PCM signed 16-bit little-endian" channels="1" duration="68" frame_size="1280x720" frequency="22050" analysisdata="" file_size="120824" aspect_ratio="0" file_hash="1e706d28050d9c56d07b6baafd1cadfa" type="1" id="24" name="07-Drag-the-map-with-two-fingers-while-building-.wav.wav" resource="/home/pelya/kino/kdenlive/talk/07-Drag-the-map-with-two-fingers-while-building-.wav.wav"/>
  <kdenlive_producer audio_max="63" audiocodec="PCM signed 16-bit little-endian" channels="1" duration="37" frame_size="1280x720" frequency="22050" analysisdata="" file_size="65384" aspect_ratio="0" file_hash="5ad766203a404244fca715f2bf071de4" type="1" id="25" name="08-It-will-also-scroll-.wav.wav" resource="/home/pelya/kino/kdenlive/talk/08-It-will-also-scroll-.wav.wav"/>
  <kdenlive_producer audio_max="62" audiocodec="PCM signed 16-bit little-endian" channels="1" duration="50" frame_size="1280x720" frequency="22050" analysisdata="" file_size="89364" aspect_ratio="0" file_hash="d7b75596f8ff882298d85440b2bbf400" type="1" id="26" name="09-Select-a-bus-station-to-build-.wav.wav" resource="/home/pelya/kino/kdenlive/talk/09-Select-a-bus-station-to-build-.wav.wav"/>
  <kdenlive_producer audio_max="62" audiocodec="PCM signed 16-bit little-endian" channels="1" duration="39" frame_size="1280x720" frequency="22050" analysisdata="" file_size="69564" aspect_ratio="0" file_hash="f46704a3f7ae913aa76366666201dd28" type="1" id="27" name="10-Select-orientation-.wav.wav" resource="/home/pelya/kino/kdenlive/talk/10-Select-orientation-.wav.wav"/>
  <kdenlive_producer audio_max="63" audiocodec="PCM signed 16-bit little-endian" channels="1" duration="62" frame_size="1280x720" frequency="22050" analysisdata="" file_size="110484" aspect_ratio="0" file_hash="eeda8c9a480172857857d11e34602079" type="1" id="28" name="11-Build-another-station-in-the-second-town-.wav.wav" resource="/home/pelya/kino/kdenlive/talk/11-Build-another-station-in-the-second-town-.wav.wav"/>
  <kdenlive_producer audio_max="63" audiocodec="PCM signed 16-bit little-endian" channels="1" duration="41" frame_size="1280x720" frequency="22050" analysisdata="" file_size="73524" aspect_ratio="0" file_hash="3f79121be06d8b5b18b10cc32325a520" type="1" id="29" name="12-Turn-on-area-coverage-.wav.wav" resource="/home/pelya/kino/kdenlive/talk/12-Turn-on-area-coverage-.wav.wav"/>
  <kdenlive_producer audio_max="63" audiocodec="PCM signed 16-bit little-endian" channels="1" duration="54" frame_size="1280x720" frequency="22050" analysisdata="" file_size="95524" aspect_ratio="0" file_hash="eebb84f11cd904015a4d7180c607f4fb" type="1" id="30" name="13-You-want-to-cover-many-buildings-.wav.wav" resource="/home/pelya/kino/kdenlive/talk/13-You-want-to-cover-many-buildings-.wav.wav"/>
  <kdenlive_producer audio_max="61" audiocodec="PCM signed 16-bit little-endian" channels="1" duration="35" frame_size="1280x720" frequency="22050" analysisdata="" file_size="62084" aspect_ratio="0" file_hash="0fa7ef4205a296600740caffaf26ef6b" type="1" id="31" name="14-Build-a-vehicle-depot-.wav.wav" resource="/home/pelya/kino/kdenlive/talk/14-Build-a-vehicle-depot-.wav.wav"/>
  <kdenlive_producer audio_max="62" audiocodec="PCM signed 16-bit little-endian" channels="1" duration="19" frame_size="1280x720" frequency="22050" analysisdata="" file_size="34364" aspect_ratio="0" file_hash="da7e0dac9a1252ca8897061d4547dcd8" type="1" id="32" name="15-Buy-a-bus-.wav.wav" resource="/home/pelya/kino/kdenlive/talk/15-Buy-a-bus-.wav.wav"/>
  <kdenlive_producer audio_max="61" audiocodec="PCM signed 16-bit little-endian" channels="1" duration="36" frame_size="1280x720" frequency="22050" analysisdata="" file_size="64944" aspect_ratio="0" file_hash="cce7ddbd608e855f8639866cfcee87d6" type="1" id="33" name="16-Open-vehicle-orders-.wav.wav" resource="/home/pelya/kino/kdenlive/talk/16-Open-vehicle-orders-.wav.wav"/>
  <kdenlive_producer audio_max="61" audiocodec="PCM signed 16-bit little-endian" channels="1" duration="26" frame_size="1280x720" frequency="22050" analysisdata="" file_size="46024" aspect_ratio="0" file_hash="60511faac5cf1c5590a9ff24e0d74903" type="1" id="34" name="17-Add-a-station-.wav.wav" resource="/home/pelya/kino/kdenlive/talk/17-Add-a-station-.wav.wav"/>
  <kdenlive_producer audio_max="63" audiocodec="PCM signed 16-bit little-endian" channels="1" duration="41" frame_size="1280x720" frequency="22050" analysisdata="" file_size="73964" aspect_ratio="0" file_hash="8631dfd77f07a7cf2cdd3106722012f4" type="1" id="35" name="18-Select-another-station-.wav.wav" resource="/home/pelya/kino/kdenlive/talk/18-Select-another-station-.wav.wav"/>
  <kdenlive_producer audio_max="63" audiocodec="PCM signed 16-bit little-endian" channels="1" duration="26" frame_size="1280x720" frequency="22050" analysisdata="" file_size="46244" aspect_ratio="0" file_hash="2e9d18c1d867a785e28fcc7d71d1c460" type="1" id="36" name="19-Start-vehicle-.wav.wav" resource="/home/pelya/kino/kdenlive/talk/19-Start-vehicle-.wav.wav"/>
  <kdenlive_producer audio_max="60" audiocodec="PCM signed 16-bit little-endian" channels="1" duration="25" frame_size="1280x720" frequency="22050" analysisdata="" file_size="45144" aspect_ratio="0" file_hash="2c4fee901b82ef735f9ad48949cf6ddd" type="1" id="37" name="20-Go-to-depot-.wav.wav" resource="/home/pelya/kino/kdenlive/talk/20-Go-to-depot-.wav.wav"/>
  <kdenlive_producer audio_max="61" audiocodec="PCM signed 16-bit little-endian" channels="1" duration="25" frame_size="1280x720" frequency="22050" analysisdata="" file_size="44484" aspect_ratio="0" file_hash="fa6f303852e5149a8f5add99a63de26d" type="1" id="38" name="21-Clone-the-bus-.wav.wav" resource="/home/pelya/kino/kdenlive/talk/21-Clone-the-bus-.wav.wav"/>
  <kdenlive_producer audio_max="62" audiocodec="PCM signed 16-bit little-endian" channels="1" duration="23" frame_size="1280x720" frequency="22050" analysisdata="" file_size="41844" aspect_ratio="0" file_hash="e239144ce1e615569e28f548da8984d9" type="1" id="39" name="22-Clone-again-.wav.wav" resource="/home/pelya/kino/kdenlive/talk/22-Clone-again-.wav.wav"/>
  <kdenlive_producer audio_max="62" audiocodec="PCM signed 16-bit little-endian" channels="1" duration="35" frame_size="1280x720" frequency="22050" analysisdata="" file_size="62524" aspect_ratio="0" file_hash="fa5d43426162e55b8f495446617c2ad1" type="1" id="40" name="23-Start-all-vehicles-.wav.wav" resource="/home/pelya/kino/kdenlive/talk/23-Start-all-vehicles-.wav.wav"/>
  <markers>
   <marker type="0" comment="Marker" id="1" time="195.36"/>
   <marker type="0" comment="Marker" id="1" time="199.56"/>
   <marker type="0" comment="Marker" id="1" time="394.56"/>
  </markers>
  <groups/>
 </kdenlivedoc>
</mlt>
